<?xml version="1.0" encoding="UTF-8" standalone="no"?>
<!-- Created with Inkscape (http://www.inkscape.org/) -->

<svg
   width="210mm"
   height="148mm"
   viewBox="0 0 210 148"
   version="1.1"
   id="svg5"
   inkscape:version="1.2.2 (732a01da63, 2022-12-09)"
   sodipodi:docname="corrientes.svg"
   xmlns:inkscape="http://www.inkscape.org/namespaces/inkscape"
   xmlns:sodipodi="http://sodipodi.sourceforge.net/DTD/sodipodi-0.dtd"
   xmlns="http://www.w3.org/2000/svg"
   xmlns:svg="http://www.w3.org/2000/svg">
  <sodipodi:namedview
     id="namedview7"
     pagecolor="#ffffff"
     bordercolor="#000000"
     borderopacity="0.25"
     inkscape:showpageshadow="2"
     inkscape:pageopacity="0.0"
     inkscape:pagecheckerboard="0"
     inkscape:deskcolor="#d1d1d1"
     inkscape:document-units="mm"
     showgrid="false"
     inkscape:zoom="0.69130191"
     inkscape:cx="396.3536"
     inkscape:cy="413.71215"
     inkscape:window-width="1920"
     inkscape:window-height="974"
     inkscape:window-x="-11"
     inkscape:window-y="-11"
     inkscape:window-maximized="1"
     inkscape:current-layer="layer1" />
  <defs
     id="defs2" />
  <g
     inkscape:label="Capa 1"
     inkscape:groupmode="layer"
     id="layer1">
    <g
       transform="matrix(0.26458333,0,0,0.26458333,-56.269257,-3.2187394)"
       id="g73">
      <path
         d="M 312.5,200.5 H 879.492"
         stroke="#000000"
         stroke-width="3"
         stroke-miterlimit="8"
         fill="none"
         fill-rule="evenodd"
         id="path9" />
      <rect
         x="550.5"
         y="177.5"
         width="125"
         height="45"
         stroke="#000000"
         stroke-width="3"
         stroke-miterlimit="8"
         fill="#ffffff"
         id="rect11" />
      <path
         d="m 416,200.5 v 249.477 h -3 V 200.5 Z m -7.5,0 c 0,-3.314 2.686,-6 6,-6 3.314,0 6,2.686 6,6 0,3.314 -2.686,6 -6,6 -3.314,0 -6,-2.686 -6,-6 z"
         id="path13" />
      <rect
         x="391.5"
         y="257.5"
         width="46"
         height="124"
         stroke="#000000"
         stroke-width="3"
         stroke-miterlimit="8"
         fill="#ffffff"
         id="rect15" />
      <path
         d="m 790,200.5 v 249.477 h -3 V 200.5 Z m -7.5,0 c 0,-3.314 2.686,-6 6,-6 3.314,0 6,2.686 6,6 0,3.314 -2.686,6 -6,6 -3.314,0 -6,-2.686 -6,-6 z"
         id="path17" />
      <rect
         x="765.5"
         y="268.5"
         width="46"
         height="125"
         stroke="#000000"
         stroke-width="3"
         stroke-miterlimit="8"
         fill="#ffffff"
         id="rect19" />
      <path
         d="m 380.5,449.5 h 68.039"
         stroke="#000000"
         stroke-width="3"
         stroke-miterlimit="8"
         fill="none"
         fill-rule="evenodd"
         id="path21" />
      <path
         d="m 391.5,461.5 h 45.359"
         stroke="#000000"
         stroke-width="3"
         stroke-miterlimit="8"
         fill="none"
         fill-rule="evenodd"
         id="path23" />
      <path
         d="m 414.5,472.5 v 0"
         stroke="#000000"
         stroke-width="3"
         stroke-miterlimit="8"
         fill="none"
         fill-rule="evenodd"
         id="path25" />
      <path
         d="m 402.5,472.5 h 22.68"
         stroke="#000000"
         stroke-width="3"
         stroke-miterlimit="8"
         fill="none"
         fill-rule="evenodd"
         id="path27" />
      <path
         d="m 754.5,449.5 h 68.039"
         stroke="#000000"
         stroke-width="3"
         stroke-miterlimit="8"
         fill="none"
         fill-rule="evenodd"
         id="path29" />
      <path
         d="m 765.5,461.5 h 45.359"
         stroke="#000000"
         stroke-width="3"
         stroke-miterlimit="8"
         fill="none"
         fill-rule="evenodd"
         id="path31" />
      <path
         d="m 788.5,472.5 v 0"
         stroke="#000000"
         stroke-width="3"
         stroke-miterlimit="8"
         fill="none"
         fill-rule="evenodd"
         id="path33" />
      <path
         d="m 777.5,472.5 h 22.68"
         stroke="#000000"
         stroke-width="3"
         stroke-miterlimit="8"
         fill="none"
         fill-rule="evenodd"
         id="path35" />
      <text
         font-family="'Cambria Math', 'Cambria Math_MSFontService', sans-serif"
         font-weight="400"
         font-size="36px"
         transform="translate(606.65,142)"
         id="text37">𝑌</text>
      <text
         font-family="'Cambria Math', 'Cambria Math_MSFontService', sans-serif"
         font-weight="400"
         font-size="26px"
         transform="translate(622.49,149)"
         id="text39">𝑠</text>
      <text
         font-family="'Cambria Math', 'Cambria Math_MSFontService', sans-serif"
         font-weight="400"
         font-size="36px"
         transform="translate(834.4,330)"
         id="text41">𝑌</text>
      <text
         font-family="'Cambria Math', 'Cambria Math_MSFontService', sans-serif"
         font-weight="400"
         font-size="26px"
         transform="translate(848.7,337)"
         id="text43">𝑔</text>
      <text
         font-family="'Cambria Math', 'Cambria Math_MSFontService', sans-serif"
         font-weight="400"
         font-size="36px"
         transform="translate(348.9,320)"
         id="text45">𝑌</text>
      <text
         font-family="'Cambria Math', 'Cambria Math_MSFontService', sans-serif"
         font-weight="400"
         font-size="26px"
         transform="translate(363.2,328)"
         id="text47">𝑔</text>
      <path
         d="m 221.5,199 h 110.428 v 3 H 221.5 Z m 99.184,-6.796 14.221,8.296 -14.221,8.296 c -0.715,0.417 -1.634,0.176 -2.051,-0.54 -0.418,-0.716 -0.176,-1.634 0.54,-2.052 l 12,-7 v 2.592 l -12,-7 c -0.716,-0.418 -0.958,-1.336 -0.54,-2.052 0.417,-0.715 1.336,-0.957 2.051,-0.54 z"
         id="path49" />
      <path
         d="M 1.89373e-6,-1.5 121.768,-1.49985 v 3 L -1.89373e-6,1.5 Z M 110.524,-8.29553 124.745,1.57634e-4 110.524,8.29581 c -0.716,0.41742 -1.634,0.17571 -2.051,-0.53987 -0.418,-0.71557 -0.176,-1.63405 0.539,-2.05147 l 12,-6.99999 v 2.59134 l -12,-7.00002 c -0.715,-0.41742 -0.957,-1.33589 -0.539,-2.05147 0.417,-0.71558 1.336,-0.95728 2.051,-0.53986 z"
         transform="matrix(-1,0,0,1,981.238,200.5)"
         id="path51" />
      <text
         font-family="'Cambria Math', 'Cambria Math_MSFontService', sans-serif"
         font-weight="400"
         font-size="36px"
         transform="translate(877.9,139)"
         id="text53">𝑽</text>
      <text
         font-family="'Cambria Math', 'Cambria Math_MSFontService', sans-serif"
         font-weight="400"
         font-size="26px"
         transform="translate(901.15,146)"
         id="text55">𝟐</text>
      <path
         d="m 334.5,166.5 v 68.039"
         stroke="#000000"
         stroke-width="4.5"
         stroke-miterlimit="8"
         fill="none"
         fill-rule="evenodd"
         id="path57" />
      <path
         d="m 856.5,166.5 v 68.039"
         stroke="#000000"
         stroke-width="4.5"
         stroke-miterlimit="8"
         fill="none"
         fill-rule="evenodd"
         id="path59" />
      <text
         font-family="'Cambria Math', 'Cambria Math_MSFontService', sans-serif"
         font-weight="400"
         font-size="34px"
         transform="translate(326.166,114)"
         id="text61">𝑽</text>
      <text
         font-family="'Cambria Math', 'Cambria Math_MSFontService', sans-serif"
         font-weight="400"
         font-size="25px"
         transform="translate(348.166,121)"
         id="text63">𝟏</text>
      <text
         font-family="'Cambria Math', 'Cambria Math_MSFontService', sans-serif"
         font-weight="400"
         font-size="36px"
         transform="translate(952.966,252)"
         id="text65">𝑰</text>
      <text
         font-family="'Cambria Math', 'Cambria Math_MSFontService', sans-serif"
         font-weight="400"
         font-size="26px"
         transform="translate(968.716,259)"
         id="text67">𝟐</text>
      <text
         font-family="'Cambria Math', 'Cambria Math_MSFontService', sans-serif"
         font-weight="400"
         font-size="36px"
         transform="translate(238.923,245)"
         id="text69">𝑰</text>
      <text
         font-family="'Cambria Math', 'Cambria Math_MSFontService', sans-serif"
         font-weight="400"
         font-size="26px"
         transform="translate(254.673,252)"
         id="text71">𝟏</text>
    </g>
  </g>
</svg>
