<?xml version="1.0" encoding="UTF-8" standalone="no"?>
<!-- Creator: CorelDRAW -->

<svg
   xml:space="preserve"
   width="1280px"
   height="549px"
   version="1.1"
   style="shape-rendering:geometricPrecision; text-rendering:geometricPrecision; image-rendering:optimizeQuality; fill-rule:evenodd; clip-rule:evenodd"
   viewBox="0 0 200.981 86.218"
   id="svg194"
   sodipodi:docname="banner1.svg"
   inkscape:version="1.2.2 (732a01da63, 2022-12-09)"
   xmlns:inkscape="http://www.inkscape.org/namespaces/inkscape"
   xmlns:sodipodi="http://sodipodi.sourceforge.net/DTD/sodipodi-0.dtd"
   xmlns="http://www.w3.org/2000/svg"
   xmlns:svg="http://www.w3.org/2000/svg"><sodipodi:namedview
   id="namedview196"
   pagecolor="#ffffff"
   bordercolor="#000000"
   borderopacity="0.25"
   inkscape:showpageshadow="2"
   inkscape:pageopacity="0.0"
   inkscape:pagecheckerboard="0"
   inkscape:deskcolor="#d1d1d1"
   showgrid="false"
   inkscape:zoom="0.80968568"
   inkscape:cx="750.90868"
   inkscape:cy="422.38613"
   inkscape:window-width="1920"
   inkscape:window-height="1046"
   inkscape:window-x="-11"
   inkscape:window-y="-11"
   inkscape:window-maximized="1"
   inkscape:current-layer="Capa_x0020_1" />
 <defs
   id="defs4"><rect
   x="1483.2916"
   y="46.931792"
   width="726.20773"
   height="119.79958"
   id="rect884" />
  <style
   type="text/css"
   id="style2">
   <![CDATA[
    .str0 {stroke:white;stroke-width:0.094;stroke-miterlimit:22.9256}
    .fil2 {fill:none;fill-rule:nonzero}
    .fil0 {fill:#3E3E3E}
    .fil1 {fill:white;fill-rule:nonzero}
   ]]>
  </style>
 </defs>
 <g
   id="Capa_x0020_1"
   inkscape:label="Capa 1">
  <metadata
   id="CorelCorpID_0Corel-Layer" />
  <path
   class="fil0"
   d="m 21.982,0 h 173.974 c 2.764,0 5.025,2.2660864 5.025,5.0353021 V 67.527571 c 0,10.386313 -8.479,18.884388 -18.842,18.884388 H 5.024 C 2.261,86.411959 0,84.145872 0,81.376657 V 22.031451 C 0,9.9142533 9.892,0 21.982,0 Z"
   id="path7"
   style="stroke-width:1.00112" />
  <path
   class="fil1"
   d="M25.687 4.943c-11.218,0 -20.31,9.093 -20.31,20.31 0,9.024 5.889,16.664 14.03,19.31l0.007 0.001 0.332 0c0.475,-0.081 0.865,-0.505 0.865,-1.03l0 -3.809c-0.787,0.112 -1.72,0.228 -2.115,0.21 -1.144,-0.052 -2.201,-0.233 -2.73,-0.551 -0.616,-0.37 -1.481,-1.057 -1.734,-1.608 -0.36,-0.781 -0.443,-1.176 -0.867,-1.861 -0.381,-0.613 -1.037,-1.248 -1.461,-1.48 -0.423,-0.233 -0.825,-0.551 -0.91,-0.762 -0.084,-0.212 0.106,-0.508 0.508,-0.572 0.401,-0.063 1.121,0.064 1.862,0.402 0.56,0.256 1.178,0.982 1.607,1.608 0.508,0.741 1.185,1.503 1.756,1.841 0.571,0.338 1.756,0.508 2.877,0.338 0.435,-0.065 0.888,-0.227 1.281,-0.4 0.158,-1.051 0.626,-1.996 1.324,-2.733 -5.981,-0.732 -9.263,-3.505 -9.263,-9.581 0,-2.343 0.78,-4.276 2.11,-5.792 -0.151,-0.332 -0.309,-0.783 -0.388,-1.354 -0.174,-1.269 0.032,-2.031 0.207,-2.776 0.174,-0.746 0.381,-1.27 0.381,-1.27 0,0 0.936,-0.095 1.729,0.175 0.793,0.27 1.475,0.476 2.459,1.063 0.463,0.276 0.929,0.579 1.297,0.824 1.578,-0.438 3.317,-0.662 5.146,-0.662 1.812,0 3.536,0.223 5.103,0.658 0.366,-0.244 0.829,-0.545 1.289,-0.819 0.984,-0.587 1.667,-0.793 2.46,-1.063 0.793,-0.27 1.729,-0.175 1.729,-0.175 0,0 0.206,0.524 0.381,1.27 0.175,0.745 0.381,1.507 0.206,2.776 -0.076,0.557 -0.229,0.999 -0.376,1.329 1.355,1.525 2.149,3.471 2.149,5.817 0,6.165 -3.321,8.873 -9.258,9.585 0.859,0.909 1.394,2.129 1.394,3.478l0 5.895c0,0.522 0.385,0.943 0.856,1.029l0.343 0c8.143,-2.645 14.034,-10.286 14.034,-19.311 0,-11.217 -9.093,-20.31 -20.31,-20.31zm-12.959 29.173c-0.156,-0.08 -0.241,-0.229 -0.188,-0.333 0.053,-0.105 0.223,-0.124 0.38,-0.044 0.156,0.08 0.24,0.229 0.188,0.333 -0.053,0.105 -0.224,0.124 -0.38,0.044zm1.231 0.766c-0.083,0.09 -0.259,0.061 -0.395,-0.062 -0.137,-0.124 -0.18,-0.298 -0.098,-0.387 0.082,-0.09 0.259,-0.061 0.395,0.063 0.136,0.123 0.18,0.297 0.098,0.386zm0.765 1.27c-0.103,0.073 -0.279,0.005 -0.392,-0.153 -0.112,-0.157 -0.119,-0.345 -0.016,-0.418 0.104,-0.073 0.279,-0.005 0.392,0.152 0.112,0.158 0.12,0.346 0.016,0.419zm1.1 0.955c-0.07,0.114 -0.269,0.119 -0.444,0.013 -0.174,-0.107 -0.26,-0.286 -0.189,-0.399 0.07,-0.114 0.269,-0.119 0.443,-0.013 0.175,0.107 0.26,0.286 0.19,0.399zm1.04 0.936c-0.216,-0.027 -0.377,-0.162 -0.358,-0.302 0.017,-0.14 0.207,-0.231 0.422,-0.205 0.216,0.026 0.377,0.161 0.358,0.302 -0.017,0.139 -0.206,0.231 -0.422,0.205zm1.677 0.242c-0.231,-0.013 -0.411,-0.145 -0.402,-0.293 0.01,-0.148 0.203,-0.259 0.434,-0.246 0.23,0.013 0.41,0.145 0.401,0.294 -0.009,0.149 -0.203,0.259 -0.433,0.245zm1.582 -0.158c-0.246,0 -0.445,-0.128 -0.445,-0.285 0,-0.158 0.199,-0.286 0.445,-0.286 0.245,0 0.445,0.128 0.445,0.286 0,0.157 -0.2,0.285 -0.445,0.285z"
   id="path9" />
  <g
   id="g13"
   transform="matrix(0.517646,0,0,1,93.022766,-1.9395865)">
   <path
   class="fil1"
   d="M 186.37,56.388 H 62.62 L 62.611,54.554 H 186.36 v 0 z m 3.831,3.639 -1.747,-0.55 v 0 l 0.05,-0.178 0.04,-0.173 0.03,-0.169 0.021,-0.164 0.012,-0.158 0.004,-0.153 -0.005,-0.148 -0.013,-0.143 -0.02,-0.137 -0.027,-0.131 -0.034,-0.126 -0.04,-0.12 -0.046,-0.115 -0.053,-0.11 -0.058,-0.105 -0.064,-0.099 -0.07,-0.094 -0.076,-0.09 -0.081,-0.084 -0.087,-0.079 -0.093,-0.075 -0.1,-0.07 -0.105,-0.064 -0.113,-0.06 -0.119,-0.053 -0.126,-0.048 -0.134,-0.042 -0.14,-0.035 -0.148,-0.028 -0.156,-0.021 -0.163,-0.013 -0.17,-0.004 -0.01,-1.834 0.265,0.007 0.26,0.02 0.255,0.034 0.249,0.048 0.244,0.06 0.236,0.075 0.229,0.087 0.222,0.1 0.214,0.112 0.205,0.125 0.195,0.138 0.186,0.148 0.175,0.16 0.164,0.171 0.152,0.179 0.141,0.19 0.128,0.199 0.115,0.206 0.102,0.214 0.09,0.221 0.076,0.228 0.062,0.232 0.05,0.238 0.035,0.242 0.021,0.246 0.008,0.249 -0.005,0.253 -0.02,0.254 -0.033,0.257 -0.046,0.259 -0.06,0.26 z m -4.331,7.836 2.584,-8.386 1.747,0.55 -2.583,8.385 v 0 z m -4.722,5.472 -0.009,-1.833 v 0 l 0.175,-0.005 0.178,-0.013 0.18,-0.022 0.181,-0.031 0.182,-0.04 0.183,-0.048 0.184,-0.056 0.183,-0.065 0.183,-0.073 0.183,-0.081 0.18,-0.088 0.179,-0.096 0.176,-0.103 0.174,-0.11 0.171,-0.117 0.167,-0.123 0.163,-0.13 0.158,-0.135 0.154,-0.14 0.149,-0.145 0.143,-0.151 0.136,-0.155 0.131,-0.158 0.124,-0.163 0.117,-0.166 0.109,-0.169 0.102,-0.171 0.094,-0.174 0.086,-0.176 0.077,-0.177 0.069,-0.179 0.06,-0.18 1.748,0.55 -0.087,0.259 -0.098,0.255 -0.109,0.25 -0.119,0.245 -0.13,0.239 -0.139,0.234 -0.148,0.229 -0.156,0.222 -0.165,0.217 -0.173,0.21 -0.18,0.204 -0.188,0.197 -0.194,0.19 -0.201,0.183 -0.207,0.177 -0.213,0.168 -0.218,0.161 -0.223,0.153 -0.229,0.145 -0.233,0.136 -0.237,0.127 -0.242,0.118 -0.245,0.109 -0.249,0.1 -0.253,0.089 -0.255,0.078 -0.258,0.068 -0.261,0.056 -0.262,0.045 -0.265,0.033 -0.266,0.02 z M 57.389,71.502 h 123.75 l 0.009,1.833 H 57.399 v 0 z m -3.831,-3.639 1.748,0.549 v 0 l -0.051,0.178 -0.04,0.173 -0.03,0.169 -0.021,0.164 -0.012,0.158 -0.003,0.153 0.004,0.148 0.013,0.143 0.02,0.137 0.027,0.131 0.034,0.126 0.04,0.121 0.046,0.114 0.053,0.11 0.058,0.105 0.064,0.099 0.07,0.094 0.076,0.09 0.081,0.084 0.087,0.079 0.094,0.075 0.099,0.07 0.105,0.064 0.113,0.06 0.119,0.054 0.126,0.048 0.134,0.041 0.14,0.035 0.148,0.029 0.156,0.02 0.163,0.013 0.17,0.005 0.01,1.833 -0.265,-0.006 -0.26,-0.021 -0.255,-0.034 -0.249,-0.047 -0.243,-0.061 -0.237,-0.074 -0.229,-0.087 -0.222,-0.1 -0.214,-0.113 -0.205,-0.125 -0.195,-0.138 -0.185,-0.148 -0.176,-0.16 -0.163,-0.17 -0.153,-0.18 -0.14,-0.19 -0.129,-0.199 -0.115,-0.206 -0.102,-0.214 -0.09,-0.221 -0.076,-0.228 -0.062,-0.232 -0.049,-0.238 -0.036,-0.242 -0.021,-0.246 -0.008,-0.249 0.005,-0.252 0.02,-0.255 0.033,-0.257 0.046,-0.258 0.06,-0.261 0.074,-0.261 z m 4.331,-7.836 -2.583,8.385 -1.748,-0.549 2.584,-8.386 v 0 z m 4.722,-5.473 0.009,1.834 v 0 l -0.175,0.004 -0.178,0.013 -0.179,0.023 -0.181,0.03 -0.183,0.04 -0.183,0.048 -0.184,0.057 -0.183,0.064 -0.183,0.073 -0.182,0.081 -0.181,0.088 -0.179,0.097 -0.176,0.103 -0.174,0.11 -0.171,0.116 -0.167,0.124 -0.163,0.129 -0.158,0.135 -0.154,0.14 -0.148,0.145 -0.143,0.151 -0.137,0.155 -0.131,0.158 -0.124,0.163 -0.117,0.166 -0.109,0.169 -0.102,0.171 -0.094,0.174 -0.086,0.176 -0.077,0.177 -0.069,0.179 -0.06,0.18 -1.747,-0.55 0.086,-0.259 0.098,-0.255 0.109,-0.25 0.12,-0.245 0.129,-0.239 0.139,-0.234 0.148,-0.229 0.157,-0.222 0.164,-0.216 0.173,-0.211 0.181,-0.203 0.187,-0.198 0.194,-0.19 0.201,-0.183 0.207,-0.176 0.213,-0.169 0.218,-0.161 0.224,-0.153 0.228,-0.144 0.233,-0.137 0.237,-0.127 0.242,-0.118 0.246,-0.109 0.249,-0.099 0.252,-0.089 0.255,-0.079 0.258,-0.068 0.261,-0.056 0.262,-0.045 0.265,-0.032 0.266,-0.02 z"
   id="path11" />
  </g>
  
  
  
  
  
  
  
  
  
  
  
  
  
  
  
  
  
  
  
  
  
  
  
  
  
  
  
  
  
  
  
  
  
  
  
  
  
  
  
  
  
  
  
  
  
  
  
  
  
  
  
  
  
  
  
  
  
  
  
  
  
  
  
  
  
  
  
  
  
  
  
  
  
  
  
 <text
   xml:space="preserve"
   style="font-size:5.02546px;text-align:center;text-anchor:middle;fill:none;stroke:#000000;stroke-width:0.314091"
   x="59.138744"
   y="8.3402224"
   id="text812"><tspan
     sodipodi:role="line"
     id="tspan810"
     style="stroke-width:0.314091"
     x="59.138744"
     y="8.3402224" /></text><g
   transform="matrix(0.1152256,0,0,0.1152256,-11.354592,-16.24921)"
   id="g870"><text
     fill="#ffffff"
     font-family="'Segoe UI', 'Segoe UI_MSFontService', sans-serif"
     font-weight="700"
     font-size="96px"
     transform="translate(572.321,277)"
     id="text864">Power Flow</text><text
     fill="#ffffff"
     font-family="'Segoe UI', 'Segoe UI_MSFontService', sans-serif"
     font-weight="400"
     font-size="96px"
     transform="translate(572.321,393)"
     id="text866">Introducción al Problema de </text><text
     fill="#ffffff"
     font-family="'Segoe UI', 'Segoe UI_MSFontService', sans-serif"
     font-weight="400"
     font-size="96px"
     transform="translate(572.321,508)"
     id="text868">Flujos de Potencia </text></g><text
   xml:space="preserve"
   transform="matrix(0.15704554,0,0,0.15704554,-0.0186439,0)"
   id="text882"
   style="fill:none;stroke-width:2;font-size:32px;stroke:#000000;text-align:center;white-space:pre;shape-inside:url(#rect884)" /><g
   transform="matrix(0.12480306,0,0,0.12480306,106.64697,-12.721185)"
   id="g890"><text
     fill="#ffffff"
     font-family="'Segoe UI', 'Segoe UI_MSFontService', sans-serif"
     font-weight="400"
     font-size="96px"
     transform="translate(160.301,628)"
     id="text888">PowerFlow</text></g><g
   transform="matrix(0.04935545,0,0,0.04935545,118.14973,32.285848)"
   id="g902"><text
     fill="#ffffff"
     font-family="'Segoe UI', 'Segoe UI_MSFontService', sans-serif"
     font-weight="400"
     font-size="96px"
     transform="translate(112.301,887)"
     id="text900">https://github.com/josimardtm</text></g></g>
</svg>
