<?xml version="1.0" encoding="UTF-8" standalone="no"?>
<!-- Created with Inkscape (http://www.inkscape.org/) -->

<svg
   width="297mm"
   height="122mm"
   viewBox="0 0 297 122"
   version="1.1"
   id="svg5"
   inkscape:version="1.2.2 (732a01da63, 2022-12-09)"
   sodipodi:docname="acoplamiento.svg"
   xmlns:inkscape="http://www.inkscape.org/namespaces/inkscape"
   xmlns:sodipodi="http://sodipodi.sourceforge.net/DTD/sodipodi-0.dtd"
   xmlns="http://www.w3.org/2000/svg"
   xmlns:svg="http://www.w3.org/2000/svg">
  <sodipodi:namedview
     id="namedview7"
     pagecolor="#ffffff"
     bordercolor="#000000"
     borderopacity="0.25"
     inkscape:showpageshadow="2"
     inkscape:pageopacity="0.0"
     inkscape:pagecheckerboard="0"
     inkscape:deskcolor="#d1d1d1"
     inkscape:document-units="mm"
     showgrid="false"
     inkscape:zoom="0.69130191"
     inkscape:cx="396.3536"
     inkscape:cy="371.76232"
     inkscape:window-width="1920"
     inkscape:window-height="974"
     inkscape:window-x="-11"
     inkscape:window-y="-11"
     inkscape:window-maximized="1"
     inkscape:current-layer="layer1" />
  <defs
     id="defs2" />
  <g
     inkscape:label="Capa 1"
     inkscape:groupmode="layer"
     id="layer1">
    <g
       transform="matrix(0.22034216,0,0,0.22034216,-53.894331,-87.606171)"
       id="g266">
      <path
         d="m 722.781,613.469 23.646,-19.842 18.891,15.851 -15.435,26.733 c 10.975,12.346 19.319,26.799 24.524,42.477 h 30.869 l 4.282,24.285 -29.008,10.557 c 0.472,16.512 -2.426,32.948 -8.517,48.304 l 23.648,19.841 -12.331,21.356 -29.006,-10.558 c -10.253,12.952 -23.038,23.68 -37.574,31.528 l 5.361,30.4 -23.173,8.434 -15.434,-26.734 c -16.179,3.332 -32.869,3.332 -49.048,0 l -15.434,26.734 -23.173,-8.434 5.361,-30.4 c -14.536,-7.848 -27.321,-18.576 -37.574,-31.528 l -29.006,10.558 -12.331,-21.356 23.648,-19.841 c -6.091,-15.356 -8.989,-31.791 -8.517,-48.304 l -29.008,-10.557 4.282,-24.285 h 30.869 c 5.205,-15.678 13.549,-30.131 24.524,-42.477 l -15.435,-26.733 18.891,-15.851 23.647,19.842 c 14.064,-8.664 29.747,-14.372 46.09,-16.775 l 5.36,-30.4 h 24.66 l 5.359,30.4 c 16.344,2.403 32.027,8.111 46.091,16.775 z"
         stroke="#000000"
         stroke-width="2"
         stroke-miterlimit="8"
         fill="#ffffff"
         fill-rule="evenodd"
         id="path230" />
      <text
         font-family="Calibri, Calibri_MSFontService, sans-serif"
         font-weight="400"
         font-size="32px"
         transform="translate(603.305,706)"
         id="text232">Potencia</text>
      <text
         font-family="Calibri, Calibri_MSFontService, sans-serif"
         font-weight="400"
         font-size="32px"
         transform="translate(619.635,741)"
         id="text234">Activa</text>
      <path
         d="m 495.363,548.974 32.605,-9.827 11.997,20.78 -24.812,23.324 c 3.596,13.26 3.596,27.238 0,40.498 l 24.812,23.324 -11.997,20.78 -32.605,-9.827 c -9.686,9.745 -21.791,16.734 -35.073,20.25 l -7.793,33.15 h -23.994 l -7.793,-33.15 c -13.282,-3.516 -25.388,-10.505 -35.073,-20.25 l -32.605,9.827 -11.997,-20.78 24.812,-23.324 c -3.596,-13.26 -3.596,-27.238 0,-40.498 l -24.812,-23.324 11.997,-20.78 32.605,9.827 c 9.686,-9.745 21.791,-16.734 35.073,-20.25 l 7.793,-33.15 h 23.994 l 7.793,33.15 c 13.282,3.516 25.388,10.505 35.073,20.25 z"
         stroke="#000000"
         stroke-width="2"
         stroke-miterlimit="8"
         fill="#ffffff"
         fill-rule="evenodd"
         id="path236" />
      <text
         font-family="Calibri, Calibri_MSFontService, sans-serif"
         font-weight="400"
         font-size="30px"
         transform="translate(392.122,579)"
         id="text238">Ángulos</text>
      <text
         font-family="Calibri, Calibri_MSFontService, sans-serif"
         font-weight="400"
         font-size="30px"
         transform="translate(425.492,612)"
         id="text240">de</text>
      <text
         font-family="Calibri, Calibri_MSFontService, sans-serif"
         font-weight="400"
         font-size="30px"
         transform="translate(398.532,645)"
         id="text242">Voltaje</text>
      <path
         d="m 660.099,532.176 c 93.515,-25.074 189.651,30.408 214.725,123.923 18.14,67.653 -5.731,139.61 -60.71,183.005 l 6.683,10.158 -23.959,-8.96 0.496,-26.696 6.682,10.154 C 871.539,769.351 882.169,670.506 827.76,602.984 788.759,554.583 724.875,533.747 664.837,549.845 Z"
         fill="#aaaaaa"
         fill-rule="evenodd"
         id="path244" />
      <path
         d="m 382.585,466.192 7.047,16.845 c -44.314,18.54 -71.688,63.466 -67.845,111.349 l 11.814,-2.587 -18.519,19.405 -23.098,-10.294 11.825,-2.589 c -5.636,-56.57 26.331,-110.187 78.776,-132.128 z"
         fill="#aaaaaa"
         fill-rule="evenodd"
         id="path246" />
      <path
         d="m 1386.83,612.31 23.53,-19.825 18.93,15.815 -15.33,26.676 c 10.98,12.306 19.33,26.712 24.54,42.338 l 30.77,-0.022 4.29,24.207 -28.91,10.542 c 0.47,16.458 -2.43,32.84 -8.52,48.145 l 23.53,19.818 -12.35,21.296 -28.89,-10.575 c -10.26,12.91 -23.05,23.602 -37.6,31.424 l 5.3,30.307 -23.23,8.419 -15.35,-26.665 c -16.19,3.32 -32.89,3.32 -49.08,0 l -15.35,26.665 -23.23,-8.419 5.3,-30.307 c -14.55,-7.822 -27.34,-18.514 -37.6,-31.424 l -28.89,10.575 -12.35,-21.296 23.53,-19.818 c -6.09,-15.305 -8.99,-31.686 -8.52,-48.145 l -28.91,-10.542 4.29,-24.207 30.77,0.022 c 5.21,-15.626 13.56,-30.032 24.54,-42.338 l -15.33,-26.676 18.93,-15.815 23.53,19.825 c 14.07,-8.636 29.77,-14.325 46.13,-16.721 l 5.34,-30.3 h 24.72 l 5.34,30.3 c 16.36,2.395 32.06,8.085 46.13,16.721 z"
         stroke="#e7e6e6"
         stroke-width="2"
         stroke-miterlimit="8"
         fill="#44546a"
         fill-rule="evenodd"
         id="path248" />
      <text
         fill="#ffffff"
         font-family="Calibri, Calibri_MSFontService, sans-serif"
         font-weight="400"
         font-size="32px"
         transform="translate(1266.94,705)"
         id="text250">Potencia</text>
      <text
         fill="#ffffff"
         font-family="Calibri, Calibri_MSFontService, sans-serif"
         font-weight="400"
         font-size="32px"
         transform="translate(1268.5,740)"
         id="text252">Reactiva</text>
      <path
         d="m 1159.61,547.868 32.49,-9.691 11.98,20.886 -24.77,23.148 c 3.59,13.286 3.59,27.292 0,40.578 l 24.77,23.148 -11.98,20.886 -32.49,-9.691 c -9.64,9.764 -21.69,16.767 -34.91,20.289 l -7.76,32.999 h -23.88 l -7.76,-32.999 c -13.22,-3.522 -25.27,-10.525 -34.91,-20.289 l -32.49,9.691 -11.98,-20.886 24.77,-23.148 c -3.59,-13.286 -3.59,-27.292 0,-40.578 l -24.77,-23.148 11.98,-20.886 32.49,9.691 c 9.64,-9.764 21.69,-16.767 34.91,-20.289 l 7.76,-32.999 h 23.88 l 7.76,32.999 c 13.22,3.522 25.27,10.525 34.91,20.289 z"
         stroke="#e7e6e6"
         stroke-width="2"
         stroke-miterlimit="8"
         fill="#44546a"
         fill-rule="evenodd"
         id="path254" />
      <text
         fill="#ffffff"
         font-family="Calibri, Calibri_MSFontService, sans-serif"
         font-weight="400"
         font-size="26px"
         transform="translate(1053.85,582)"
         id="text256">Magnitud</text>
      <text
         fill="#ffffff"
         font-family="Calibri, Calibri_MSFontService, sans-serif"
         font-weight="400"
         font-size="26px"
         transform="translate(1091.84,610)"
         id="text258">de</text>
      <text
         fill="#ffffff"
         font-family="Calibri, Calibri_MSFontService, sans-serif"
         font-weight="400"
         font-size="26px"
         transform="translate(1068.47,639)"
         id="text260">Voltaje</text>
      <path
         d="m 1323.9,532.028 c 93.31,-24.835 189.15,30.459 214.05,123.503 18.02,67.31 -5.87,138.855 -60.76,181.958 l 6.66,10.103 -23.88,-8.93 0.53,-26.529 6.65,10.1 c 67.44,-54.033 78.18,-152.337 23.97,-219.568 -38.86,-48.196 -102.58,-69.002 -162.51,-53.061 z"
         fill="#b0b3b9"
         fill-rule="evenodd"
         id="path262" />
      <path
         d="m 1047.26,466.114 7.02,16.785 c -44.15,18.474 -71.431,63.242 -67.602,110.955 l 11.773,-2.577 -18.454,19.336 -23.017,-10.258 11.784,-2.579 c -5.616,-56.37 26.238,-109.798 78.496,-131.662 z"
         fill="#b0b3b9"
         fill-rule="evenodd"
         id="path264" />
    </g>
  </g>
</svg>
