<?xml version="1.0" encoding="UTF-8" standalone="no"?>
<!-- Created with Inkscape (http://www.inkscape.org/) -->

<svg
   width="250mm"
   height="150mm"
   viewBox="0 0 250 150"
   version="1.1"
   id="svg5"
   inkscape:version="1.2.2 (732a01da63, 2022-12-09)"
   sodipodi:docname="nodoPQ.svg"
   xmlns:inkscape="http://www.inkscape.org/namespaces/inkscape"
   xmlns:sodipodi="http://sodipodi.sourceforge.net/DTD/sodipodi-0.dtd"
   xmlns="http://www.w3.org/2000/svg"
   xmlns:svg="http://www.w3.org/2000/svg">
  <sodipodi:namedview
     id="namedview7"
     pagecolor="#ffffff"
     bordercolor="#000000"
     borderopacity="0.25"
     inkscape:showpageshadow="2"
     inkscape:pageopacity="0.0"
     inkscape:pagecheckerboard="0"
     inkscape:deskcolor="#d1d1d1"
     inkscape:document-units="mm"
     showgrid="false"
     inkscape:zoom="0.69130191"
     inkscape:cx="397.80014"
     inkscape:cy="348.61758"
     inkscape:window-width="1920"
     inkscape:window-height="974"
     inkscape:window-x="-11"
     inkscape:window-y="-11"
     inkscape:window-maximized="1"
     inkscape:current-layer="layer1" />
  <defs
     id="defs2" />
  <g
     inkscape:label="Capa 1"
     inkscape:groupmode="layer"
     id="layer1">
    <g
       transform="matrix(0.26458333,0,0,0.26458333,-47.805495,-56.763486)"
       id="g99">
      <rect
         x="271.5"
         y="421.5"
         width="368"
         height="283"
         stroke="#00b050"
         stroke-width="4.5"
         stroke-linecap="square"
         stroke-miterlimit="8"
         stroke-dasharray="13.5, 4.5"
         fill="none"
         id="rect9" />
      <text
         font-family="Cambria, Cambria_MSFontService, sans-serif"
         font-weight="400"
         font-size="56px"
         transform="translate(474.601,287)"
         id="text11">Nodo</text>
      <text
         font-family="Cambria, Cambria_MSFontService, sans-serif"
         font-weight="400"
         font-size="56px"
         transform="translate(615.351,287)"
         id="text13">de</text>
      <text
         font-family="Cambria, Cambria_MSFontService, sans-serif"
         font-weight="400"
         font-size="56px"
         transform="translate(685.851,287)"
         id="text15">carga</text>
      <rect
         x="320"
         y="381"
         width="257"
         height="112"
         fill="#ffffff"
         id="rect17" />
      <text
         font-family="Cambria, Cambria_MSFontService, sans-serif"
         font-weight="400"
         font-size="40px"
         transform="translate(369.484,427)"
         id="text19">Variables</text>
      <text
         font-family="Cambria, Cambria_MSFontService, sans-serif"
         font-weight="400"
         font-size="40px"
         transform="translate(363.314,475)"
         id="text21">conocidas</text>
      <g
         id="g29">
        <g
           id="g27">
          <g
             id="g25">
            <path
               d="M 267.969,346 C 236.506,346 211,371.506 211,402.969 c 0,31.462 25.506,56.968 56.969,56.968 31.462,0 56.968,-25.506 56.968,-56.968 0,-0.002 0,-0.003 0,-0.005 0.011,-31.45 -25.475,-56.953 -56.925,-56.964 -0.015,0 -0.029,0 -0.043,0 z m 13.799,59.69 c -8.299,8.284 -16.65,16.643 -25.049,25.075 -7.139,-7.172 -14.294,-14.327 -21.465,-21.465 l 7.171,-7.172 14.294,14.294 c 6.939,-7.039 13.838,-14.028 20.7,-20.969 6.856,-6.939 10.65,-10.663 17.761,-17.536 0.2,-0.2 0.414,-0.397 0.647,-0.6 0.225,-0.191 0.426,-0.409 0.6,-0.648 l 7.271,7.172 c -8.446,8.4 -13.63,13.56 -21.931,21.844 z"
               fill="#00b050"
               id="path23" />
          </g>
        </g>
      </g>
      <rect
         x="701.5"
         y="421.5"
         width="312"
         height="284"
         stroke="#0070c0"
         stroke-width="4.5"
         stroke-linecap="square"
         stroke-miterlimit="8"
         stroke-dasharray="13.5, 4.5"
         fill="none"
         id="rect31" />
      <rect
         x="712"
         y="381"
         width="288"
         height="112"
         fill="#ffffff"
         id="rect33" />
      <text
         font-family="Cambria, Cambria_MSFontService, sans-serif"
         font-weight="400"
         font-size="40px"
         transform="translate(777.141,427)"
         id="text35">Variables</text>
      <text
         font-family="Cambria, Cambria_MSFontService, sans-serif"
         font-weight="400"
         font-size="40px"
         transform="translate(741.471,475)"
         id="text37">desconocidas</text>
      <g
         id="g45">
        <g
           id="g43">
          <g
             id="g41">
            <path
               d="m 1024.97,342 c -31.465,-10e-4 -56.972,25.505 -56.973,56.969 -10e-4,31.463 25.505,56.97 56.973,56.971 31.46,10e-4 56.97,-25.505 56.97,-56.969 0,-10e-4 0,-0.004 0,-0.005 0.01,-31.449 -25.47,-56.954 -56.92,-56.966 -0.02,0 -0.04,0 -0.05,0 z m 5.89,87.714 c -0.63,1.484 -1.81,2.666 -3.3,3.3 -0.76,0.325 -1.58,0.49 -2.41,0.486 -1.66,0.003 -3.24,-0.651 -4.42,-1.819 -0.56,-0.567 -1.02,-1.237 -1.33,-1.973 -0.33,-0.764 -0.49,-1.586 -0.49,-2.416 0,-1.657 0.65,-3.247 1.82,-4.42 2.43,-2.431 6.37,-2.437 8.8,-0.011 0,0.004 0.01,0.008 0.01,0.011 v 0 c 0.57,0.572 1.02,1.248 1.33,1.991 0.33,0.768 0.49,1.594 0.49,2.429 0,0.832 -0.17,1.655 -0.5,2.419 z m 5.3,-26.34 c -4.1,2.471 -6.63,6.883 -6.69,11.667 h -9 c 0.05,-7.881 4.17,-15.174 10.9,-19.286 5.63,-3.533 7.34,-10.966 3.81,-16.603 -3.54,-5.636 -10.97,-7.341 -16.61,-3.808 -3.51,2.204 -5.65,6.062 -5.65,10.211 h -9 c 0,-11.622 9.42,-21.048 21.04,-21.052 11.62,-0.005 21.05,9.414 21.06,21.037 0,7.243 -3.73,13.979 -9.86,17.831 z"
               fill="#0070c0"
               id="path39" />
          </g>
        </g>
      </g>
      <path
         d="m 923.701,592.289 c -2.825,1.203 -5.081,3.231 -6.767,6.084 -1.686,2.853 -2.529,6.057 -2.529,9.611 0,4.248 1.868,6.371 5.605,6.371 1.477,0 2.798,-0.492 3.965,-1.476 1.167,-0.985 2.083,-2.366 2.748,-4.143 0.665,-1.777 0.998,-3.659 0.998,-5.646 0,-2.151 -0.301,-4.07 -0.902,-5.756 -0.602,-1.686 -1.641,-3.368 -3.118,-5.045 z m 2.817,-15.477 c 1.586,0 3.167,0.278 4.744,0.834 1.577,0.556 3.34,1.536 5.291,2.94 l -0.93,4.375 h -2.515 c -0.638,-2.005 -1.536,-3.505 -2.694,-4.498 -1.157,-0.994 -2.547,-1.491 -4.17,-1.491 -1.221,0 -2.192,0.315 -2.912,0.944 -0.72,0.629 -1.08,1.444 -1.08,2.447 0,0.529 0.119,1.057 0.356,1.586 0.237,0.529 0.683,1.235 1.34,2.119 0.656,0.884 1.667,2.128 3.035,3.733 1.659,1.987 2.862,3.618 3.609,4.894 0.747,1.276 1.29,2.566 1.627,3.869 0.337,1.304 0.506,2.767 0.506,4.389 0,2.26 -0.533,4.466 -1.6,6.617 -1.066,2.151 -2.593,3.847 -4.58,5.086 -1.987,1.24 -4.284,1.859 -6.89,1.859 -2.316,0 -4.23,-0.382 -5.743,-1.148 -1.513,-0.766 -2.611,-1.805 -3.295,-3.117 -0.683,-1.313 -1.025,-2.826 -1.025,-4.539 0,-3.865 1.08,-7.251 3.24,-10.158 2.16,-2.908 5.355,-5.246 9.584,-7.014 -1.44,-1.622 -2.493,-3.026 -3.158,-4.211 -0.665,-1.185 -0.998,-2.306 -0.998,-3.363 0,-1.149 0.319,-2.188 0.957,-3.118 0.638,-0.929 1.586,-1.667 2.844,-2.214 1.258,-0.547 2.743,-0.821 4.457,-0.821 z"
         fill-rule="evenodd"
         id="path47" />
      <text
         fill="#000000"
         fill-opacity="0"
         font-family="Arial, Arial_MSFontService, sans-serif"
         font-size="39.7031px"
         x="909.59198"
         y="611.55298"
         id="text49">ğ›¿</text>
      <path
         d="m 946.028,600.181 h 1.442 l -3.524,15.575 h 0.561 c 0.507,0 1.054,-0.106 1.641,-0.32 0.588,-0.213 1.171,-0.49 1.752,-0.831 0.581,-0.34 1.138,-0.724 1.672,-1.151 0.534,-0.427 1.004,-0.857 1.411,-1.291 0.407,-0.434 0.731,-0.844 0.971,-1.231 0.24,-0.387 0.36,-0.714 0.36,-0.981 0,-0.321 -0.106,-0.581 -0.32,-0.781 -0.214,-0.2 -0.601,-0.334 -1.161,-0.4 l 0.24,-1.282 h 7.207 l 0.501,1.242 c -0.841,0.72 -1.649,1.388 -2.423,2.002 -0.774,0.614 -1.531,1.204 -2.272,1.771 -0.741,0.567 -1.481,1.125 -2.222,1.672 -0.741,0.547 -1.498,1.114 -2.272,1.702 0.32,1.014 0.647,2.045 0.981,3.093 0.333,1.047 0.667,2.085 1.001,3.113 0.16,0.547 0.31,1.017 0.45,1.411 0.14,0.394 0.29,0.714 0.45,0.961 0.161,0.247 0.334,0.43 0.521,0.55 0.187,0.121 0.414,0.181 0.681,0.181 0.186,0 0.38,-0.034 0.58,-0.1 0.2,-0.067 0.424,-0.187 0.671,-0.361 0.247,-0.173 0.527,-0.41 0.841,-0.71 0.313,-0.301 0.67,-0.678 1.071,-1.132 l 1.361,1.302 c -0.627,0.64 -1.211,1.194 -1.752,1.661 -0.54,0.467 -1.054,0.851 -1.541,1.151 -0.487,0.301 -0.958,0.521 -1.412,0.661 -0.453,0.14 -0.914,0.21 -1.381,0.21 -0.841,0 -1.518,-0.21 -2.032,-0.63 -0.514,-0.421 -0.951,-1.021 -1.311,-1.802 -0.36,-0.781 -0.691,-1.725 -0.991,-2.833 -0.3,-1.108 -0.651,-2.342 -1.051,-3.703 -0.094,-0.321 -0.184,-0.578 -0.27,-0.771 -0.087,-0.194 -0.197,-0.341 -0.331,-0.441 -0.133,-0.1 -0.3,-0.163 -0.5,-0.19 -0.2,-0.027 -0.454,-0.04 -0.761,-0.04 h -1.281 l -2.202,10.05 h -3.844 l 4.845,-21.501 c 0.16,-0.707 0.273,-1.265 0.34,-1.672 0.067,-0.407 0.1,-0.77 0.1,-1.091 0,-0.253 -0.043,-0.474 -0.13,-0.66 -0.087,-0.187 -0.23,-0.337 -0.43,-0.451 -0.201,-0.113 -0.468,-0.197 -0.801,-0.25 -0.334,-0.053 -0.748,-0.087 -1.241,-0.1 l 0.3,-1.361 z"
         fill-rule="evenodd"
         id="path51" />
      <text
         fill="#000000"
         fill-opacity="0"
         font-family="Arial, Arial_MSFontService, sans-serif"
         font-size="27.687px"
         x="937.53998"
         y="624.40698"
         id="text53">ğ‘˜</text>
      <text
         font-family="'Cambria Math', 'Cambria Math_MSFontService', sans-serif"
         font-weight="400"
         font-size="48px"
         transform="translate(295.242,562)"
         id="text55">ğ‘ƒ</text>
      <text
         font-family="'Cambria Math', 'Cambria Math_MSFontService', sans-serif"
         font-weight="400"
         font-size="35px"
         transform="translate(319.832,572)"
         id="text57">ğ‘˜</text>
      <text
         font-family="'Cambria Math', 'Cambria Math_MSFontService', sans-serif"
         font-weight="400"
         font-size="48px"
         transform="translate(357.432,562)"
         id="text59">=</text>
      <text
         font-family="'Cambria Math', 'Cambria Math_MSFontService', sans-serif"
         font-weight="400"
         font-size="48px"
         transform="translate(406.512,562)"
         id="text61">ğ‘ƒ</text>
      <text
         font-family="'Cambria Math', 'Cambria Math_MSFontService', sans-serif"
         font-weight="400"
         font-size="35px"
         transform="translate(431.102,572)"
         id="text63">ğº</text>
      <text
         font-family="'Cambria Math', 'Cambria Math_MSFontService', sans-serif"
         font-weight="400"
         font-size="35px"
         transform="translate(454.102,572)"
         id="text65">ğ‘˜</text>
      <text
         font-family="'Cambria Math', 'Cambria Math_MSFontService', sans-serif"
         font-weight="400"
         font-size="48px"
         transform="translate(489.042,562)"
         id="text67">âˆ’</text>
      <text
         font-family="'Cambria Math', 'Cambria Math_MSFontService', sans-serif"
         font-weight="400"
         font-size="48px"
         transform="translate(535.462,562)"
         id="text69">ğ‘ƒ</text>
      <text
         font-family="'Cambria Math', 'Cambria Math_MSFontService', sans-serif"
         font-weight="400"
         font-size="35px"
         transform="translate(560.052,572)"
         id="text71">ğ¿ğ‘˜</text>
      <text
         font-family="'Cambria Math', 'Cambria Math_MSFontService', sans-serif"
         font-weight="400"
         font-size="48px"
         transform="translate(295.412,647)"
         id="text73">ğ‘„</text>
      <text
         font-family="'Cambria Math', 'Cambria Math_MSFontService', sans-serif"
         font-weight="400"
         font-size="35px"
         transform="translate(326.392,657)"
         id="text75">ğ‘˜</text>
      <text
         font-family="'Cambria Math', 'Cambria Math_MSFontService', sans-serif"
         font-weight="400"
         font-size="48px"
         transform="translate(363.992,647)"
         id="text77">=</text>
      <text
         font-family="'Cambria Math', 'Cambria Math_MSFontService', sans-serif"
         font-weight="400"
         font-size="48px"
         transform="translate(413.072,647)"
         id="text79">ğ‘„</text>
      <text
         font-family="'Cambria Math', 'Cambria Math_MSFontService', sans-serif"
         font-weight="400"
         font-size="35px"
         transform="translate(444.052,657)"
         id="text81">ğº</text>
      <text
         font-family="'Cambria Math', 'Cambria Math_MSFontService', sans-serif"
         font-weight="400"
         font-size="35px"
         transform="translate(467.052,657)"
         id="text83">ğ‘˜</text>
      <text
         font-family="'Cambria Math', 'Cambria Math_MSFontService', sans-serif"
         font-weight="400"
         font-size="48px"
         transform="translate(501.992,647)"
         id="text85">âˆ’</text>
      <text
         font-family="'Cambria Math', 'Cambria Math_MSFontService', sans-serif"
         font-weight="400"
         font-size="48px"
         transform="translate(548.412,647)"
         id="text87">ğ‘„</text>
      <text
         font-family="'Cambria Math', 'Cambria Math_MSFontService', sans-serif"
         font-weight="400"
         font-size="35px"
         transform="translate(579.392,657)"
         id="text89">ğ¿ğ‘˜</text>
      <path
         d="m 769.417,580.304 h 11.32 l -0.301,1.34 c -0.802,0.091 -1.426,0.328 -1.873,0.711 -0.447,0.383 -0.761,0.916 -0.943,1.6 -0.183,0.683 -0.274,1.599 -0.274,2.748 0,0.273 0.028,1.093 0.082,2.461 l 0.766,20.015 v 2.188 h 0.273 l 11.84,-21.356 c 0.693,-1.258 1.212,-2.338 1.559,-3.24 0.346,-0.902 0.519,-1.7 0.519,-2.393 0,-1.531 -0.911,-2.442 -2.734,-2.734 l 0.301,-1.34 h 11.183 l -0.3,1.34 c -0.493,0.073 -0.962,0.26 -1.409,0.561 -0.446,0.3 -0.948,0.802 -1.504,1.503 -0.556,0.702 -1.417,2.056 -2.584,4.061 l -17.5,30.297 h -3.636 l -1.832,-30.488 c -0.073,-1.185 -0.205,-2.202 -0.397,-3.049 -0.191,-0.848 -0.492,-1.509 -0.902,-1.983 -0.41,-0.474 -1.062,-0.774 -1.955,-0.902 z"
         fill-rule="evenodd"
         id="path91" />
      <text
         fill="#000000"
         fill-opacity="0"
         font-family="Arial, Arial_MSFontService, sans-serif"
         font-size="37.7617px"
         x="769.11603"
         y="613.34601"
         id="text93">ğ‘‰</text>
      <path
         d="m 804.889,601.732 h 1.441 l -3.523,15.575 h 0.56 c 0.507,0 1.055,-0.107 1.642,-0.32 0.587,-0.214 1.171,-0.491 1.751,-0.831 0.581,-0.341 1.138,-0.724 1.672,-1.151 0.534,-0.427 1.004,-0.858 1.412,-1.292 0.407,-0.433 0.73,-0.844 0.97,-1.231 0.241,-0.387 0.361,-0.714 0.361,-0.981 0,-0.32 -0.107,-0.58 -0.321,-0.781 -0.213,-0.2 -0.6,-0.333 -1.161,-0.4 l 0.241,-1.281 h 7.207 l 0.5,1.241 c -0.841,0.721 -1.648,1.388 -2.422,2.002 -0.774,0.614 -1.532,1.205 -2.272,1.772 -0.741,0.567 -1.482,1.124 -2.223,1.671 -0.74,0.548 -1.498,1.115 -2.272,1.702 0.32,1.014 0.647,2.045 0.981,3.093 0.334,1.048 0.667,2.085 1.001,3.113 0.16,0.547 0.31,1.018 0.451,1.411 0.14,0.394 0.29,0.714 0.45,0.961 0.16,0.247 0.334,0.431 0.52,0.551 0.187,0.12 0.414,0.18 0.681,0.18 0.187,0 0.381,-0.033 0.581,-0.1 0.2,-0.067 0.423,-0.187 0.67,-0.36 0.247,-0.174 0.528,-0.411 0.841,-0.711 0.314,-0.3 0.671,-0.677 1.071,-1.131 l 1.362,1.301 c -0.628,0.641 -1.212,1.195 -1.752,1.662 -0.541,0.467 -1.055,0.851 -1.542,1.151 -0.487,0.3 -0.957,0.52 -1.411,0.66 -0.454,0.141 -0.914,0.211 -1.381,0.211 -0.841,0 -1.519,-0.211 -2.032,-0.631 -0.514,-0.42 -0.951,-1.021 -1.312,-1.802 -0.36,-0.78 -0.69,-1.725 -0.991,-2.832 -0.3,-1.108 -0.65,-2.343 -1.051,-3.704 -0.093,-0.32 -0.183,-0.577 -0.27,-0.771 -0.087,-0.193 -0.197,-0.34 -0.33,-0.44 -0.134,-0.1 -0.301,-0.164 -0.501,-0.19 -0.2,-0.027 -0.454,-0.04 -0.76,-0.04 h -1.282 l -2.202,10.049 H 796.4 l 4.845,-21.501 c 0.16,-0.707 0.274,-1.264 0.34,-1.671 0.067,-0.407 0.101,-0.771 0.101,-1.091 0,-0.254 -0.044,-0.474 -0.131,-0.661 -0.086,-0.187 -0.23,-0.337 -0.43,-0.45 -0.2,-0.114 -0.467,-0.197 -0.801,-0.251 -0.333,-0.053 -0.747,-0.086 -1.241,-0.1 l 0.3,-1.361 z"
         fill-rule="evenodd"
         id="path95" />
      <text
         fill="#000000"
         fill-opacity="0"
         font-family="Arial, Arial_MSFontService, sans-serif"
         font-size="27.687px"
         x="796.40002"
         y="625.95801"
         id="text97">ğ‘˜</text>
    </g>
  </g>
</svg>
